<svg xmlns="http://www.w3.org/2000/svg" viewBox="0 0 135 40" height="40" width="135">
    <rect width="135" height="40" rx="5"/>
    <path d="M68.14 21.75A4.25 4.25 0 1 0 72.41 26a4.18 4.18 0 0 0-4.11-4.25Z" style="fill:#fff"/>
    <path d="M68.14 28.58a2.58 2.58 0 1 1 2.39-2.75.91.91 0 0 1 0 .17 2.46 2.46 0 0 1-2.4 2.58Z"/>
    <path d="M58.83 21.75A4.25 4.25 0 1 0 63.09 26 4.18 4.18 0 0 0 59 21.75h-.15Z" style="fill:#fff"/>
    <path d="M58.83 28.58A2.58 2.58 0 1 1 61.22 26a2.46 2.46 0 0 1-2.4 2.58Z"/>
    <path d="M47.74 23.06v1.8h4.32a3.77 3.77 0 0 1-1 2.27 4.41 4.41 0 0 1-3.33 1.32 4.8 4.8 0 1 1 0-9.6A4.58 4.58 0 0 1 51 20.14l1.27-1.27A6.32 6.32 0 0 0 47.74 17a6.61 6.61 0 0 0-.51 13.21h.51a5.85 5.85 0 0 0 6.17-5.5 5.42 5.42 0 0 0 0-.57 6.09 6.09 0 0 0-.1-1.13Zm45.31 1.4A3.93 3.93 0 0 0 85.41 26a4.17 4.17 0 0 0 4.09 4.25h.13a4.23 4.23 0 0 0 3.54-1.88l-1.45-1a2.44 2.44 0 0 1-2.09 1.18 2.17 2.17 0 0 1-2.06-1.29l5.69-2.35Z" style="fill:#fff"/>
    <path d="M87.25 25.88a2.34 2.34 0 0 1 2.17-2.48 1.65 1.65 0 0 1 1.58.9Z"/>
    <path d="M82.63 17.5h1.87V30h-1.87zm-3.06 5.2h-.07a3 3 0 0 0-2.24-1 4.26 4.26 0 0 0 0 8.51 2.9 2.9 0 0 0 2.24-1h.06v.61c0 1.63-.87 2.5-2.27 2.5a2.35 2.35 0 0 1-2.14-1.51l-1.63.68A4 4 0 0 0 77.29 34c2.19 0 4-1.29 4-4.43V22h-1.72Z" style="fill:#fff"/>
    <path d="M77.43 28.58a2.59 2.59 0 0 1 0-5.16 2.4 2.4 0 0 1 2.27 2.52V26a2.37 2.37 0 0 1-.59 1.78 2.34 2.34 0 0 1-1.69.8Z"/>
    <path d="M101.81 17.5h-4.47V30h1.87v-4.74h2.61a3.89 3.89 0 1 0 .56-7.76 5.23 5.23 0 0 0-.56 0Z" style="fill:#fff"/>
    <path d="M101.81 23.5H99.2v-4.26h2.65a2.15 2.15 0 0 1 .29 4.29h-.29Z"/>
    <path d="M113.34 21.7a3.53 3.53 0 0 0-3.34 1.91l1.66.69a2.2 2.2 0 0 1 3-.53 1.82 1.82 0 0 1 .66 1.22v.13a4.1 4.1 0 0 0-2-.48c-1.79 0-3.6 1-3.6 2.81a3 3 0 0 0 1 2 2.86 2.86 0 0 0 2.13.72 2.62 2.62 0 0 0 2.4-1.2h.06v1h1.8v-4.78c0-2.19-1.66-3.46-3.79-3.46Z" style="fill:#fff"/>
    <path d="M113.11 28.55c-.61 0-1.46-.31-1.46-1.06 0-1 1.06-1.33 2-1.33a3.38 3.38 0 0 1 1.7.42 2.26 2.26 0 0 1-2.19 2Z"/>
    <path d="m123.74 22-2.14 5.42h-.06L119.32 22h-2l3.33 7.58-1.9 4.21h1.95L125.82 22h-2.08zm-16.81-4.5h1.87V30h-1.87z" style="fill:#fff"/>
    <path d="M47.42 10.24a2.75 2.75 0 0 1-.75 2 2.88 2.88 0 0 1-2.2.89 3.15 3.15 0 0 1-2.21-5.37 3 3 0 0 1 2.21-.9 3.08 3.08 0 0 1 1.23.25 2.61 2.61 0 0 1 .94.67l-.53.53a2 2 0 0 0-1.64-.71 2.3 2.3 0 0 0-2.33 2.29V10a2.36 2.36 0 0 0 4 1.73 1.85 1.85 0 0 0 .5-1.22h-2.17v-.72h2.91a2.28 2.28 0 0 1 .04.45ZM52 7.74h-2.7v1.9h2.46v.72H49.3v1.9H52V13h-3.5V7H52v.74zM55.28 13h-.77V7.74h-1.68V7H57v.74h-1.72V13zm4.66-6h.77v6h-.77zm4.19 6h-.77V7.74h-1.68V7h4.12v.74h-1.67V13zm9.48-.78a3.12 3.12 0 0 1-4.4 0 3.24 3.24 0 0 1 0-4.45 3.08 3.08 0 0 1 4.37 0 3.24 3.24 0 0 1 .03 4.45Z" style="fill:#fff;stroke:#fff;stroke-width:.2px"/>
    <ellipse cx="71.41" cy="10" rx="2.31" ry="2.43"/>
    <path d="M75.58 13V7h.94l2.92 4.67V7h.77v6h-.8l-3.05-4.89V13h-.78z" style="fill:#fff;stroke:#fff;stroke-width:.2px"/>
    <path d="M12.51 7.62 32 18.7a1.86 1.86 0 0 1 1 1.3 1.75 1.75 0 0 0-1-1.44L12.51 7.48C11.11 6.69 10 7.35 10 9v.1c0-1.61 1.12-2.27 2.51-1.48Z" style="fill:#fff;opacity:.25;isolation:isolate"/>
    <path d="M10.3 7.47a2 2 0 0 0-.5 1.4V31a2 2 0 0 0 .5 1.4l.1.1 12.4-12.4v-.2Z" style="fill:#00d2ff;fill-rule:evenodd"/>
    <path d="m26.9 24.27-4.1-4.1v-.3l4.1-4.1.1.1 4.9 2.8c1.4.8 1.4 2.1 0 2.9Z" style="fill:#ffbd00;fill-rule:evenodd"/>
    <path d="M27 24.17 22.8 20 10.3 32.47c.5.5 1.2.5 2.1.1l14.6-8.4" style="fill:#ff3a44;fill-rule:evenodd"/>
    <path d="m27 15.77-14.6-8.3a1.62 1.62 0 0 0-2.1.1L22.8 20Z" style="fill:#06e775;fill-rule:evenodd"/>
    <path d="m26.9 24.07-14.5 8.2a1.65 1.65 0 0 1-2 0l-.1.1.1.1a1.65 1.65 0 0 0 2 0Z" style="fill-rule:evenodd;opacity:.2;isolation:isolate"/>
    <path d="M10.3 32.27a2 2 0 0 1-.4-1.4V31a2 2 0 0 0 .5 1.4v-.1Zm21.6-11-5 2.8.1.1 4.9-2.8a1.65 1.65 0 0 0 1-1.4c0 .5-.4.9-1 1.3Z" style="fill-rule:evenodd;opacity:.12;isolation:isolate"/>
    <path d="m12.4 7.57 19.5 11.1c.6.4 1 .8 1 1.3a1.65 1.65 0 0 0-1-1.4L12.4 7.47C11 6.67 9.9 7.37 9.9 9v.1c0-1.63 1.1-2.33 2.5-1.53Z" style="fill:#fff;fill-rule:evenodd;opacity:.25;isolation:isolate"/>
</svg>
