<svg xmlns="http://www.w3.org/2000/svg" view-box="0 0 24 24" focusable="false">
  <path
    fill="#fff"
    d="M11.93,4.28h3.79a5.41,5.41,0,0,1,1.74.32,3.14,3.14,0,0,1,1.78,1.79,4.88,4.88,0,0,1,.32,1.74c0,1,.06,1.27.06,3.78s0,2.8-.06,3.78a4.88,4.88,0,0,1-.32,1.74,3.19,3.19,0,0,1-1.79,1.79,4.88,4.88,0,0,1-1.74.32c-1,0-1.28.06-3.78.06s-2.8,0-3.78-.06a4.88,4.88,0,0,1-1.74-.32,2.82,2.82,0,0,1-1.09-.71,2.88,2.88,0,0,1-.7-1.08,4.88,4.88,0,0,1-.32-1.74c0-1-.06-1.28-.06-3.78s0-2.8.06-3.78a4.88,4.88,0,0,1,.32-1.74,2.84,2.84,0,0,1,.7-1.09,3,3,0,0,1,1.09-.7,5.12,5.12,0,0,1,1.74-.24h3.78m0-1.68c-2.55,0-2.86,0-3.87,0a7.08,7.08,0,0,0-2.27.43A4.84,4.84,0,0,0,3.05,5.82,7.1,7.1,0,0,0,2.61,8.1V12c0,2.53,0,2.85.05,3.86a7,7,0,0,0,.44,2.26,4.75,4.75,0,0,0,2.75,2.75,7.1,7.1,0,0,0,2.28.44c1,0,1.32.06,3.86.06s2.87,0,3.86-.06a7,7,0,0,0,2.27-.44,4.82,4.82,0,0,0,2.74-2.75,7,7,0,0,0,.43-2.27c0-1,.06-1.32.06-3.86s0-2.87-.06-3.86a7.2,7.2,0,0,0-.43-2.29,4.77,4.77,0,0,0-2.75-2.73,6.73,6.73,0,0,0-2.27-.44c-1-.05-1.32-.06-3.86-.06Z"
  />
  <path
    fill="#fff"
    d="M11.93,7.15A4.82,4.82,0,1,0,16.75,12v0A4.82,4.82,0,0,0,11.93,7.15Zm0,7.93a3.11,3.11,0,1,1,.05,0Z"
  />
  <circle fill="#fff" cx="16.93" cy="6.96" r="1.13" />
</svg>
