<svg xmlns="http://www.w3.org/2000/svg" view-box="0 0 24 24" focusable="false">
  <path
    fill="#fff"
    d="M21.76,5.44a6,6,0,0,1-2.23.68,4.16,4.16,0,0,0,1.71-2.34,8.83,8.83,0,0,1-2.56,1.06,3.82,3.82,0,0,0-2.86-1.36,4.14,4.14,0,0,0-4,4.28v0a4.62,4.62,0,0,0,.07,1A11,11,0,0,1,3.67,4.28a4.2,4.2,0,0,0-.52,2.19A4.28,4.28,0,0,0,4.88,10a3.73,3.73,0,0,1-1.81-.53v.07a4.31,4.31,0,0,0,3.17,4.23,4.75,4.75,0,0,1-1.06.15,2.37,2.37,0,0,1-.75-.08A3.9,3.9,0,0,0,8.12,16.8a7.62,7.62,0,0,1-4.91,1.86,4.57,4.57,0,0,1-1-.1,10.7,10.7,0,0,0,6.11,2c7.31,0,11.31-6.48,11.31-12.14V7.85A9,9,0,0,0,21.76,5.44Z"
  />
</svg>
